<svg width="50" height="50" viewBox="0 0 50 50" fill="none" xmlns="http://www.w3.org/2000/svg">
<circle cx="25" cy="25" r="25" fill="#3498E1" fill-opacity="0.05"/>
<path d="M25 17.875C23.6575 17.1425 21.7713 16 20 16C17.375 16 15 17.5587 15 22.25C15 28.3738 16.32 32.7625 18.3388 35.4213C19.055 36.3663 20.8012 36.0725 21.5475 35.1263C22.045 34.495 22.5713 33.3275 23.125 31.625C23.49 30.6612 24.24 29.745 25 29.75C25.7525 29.75 26.5125 30.6712 26.875 31.625C27.4287 33.3275 27.955 34.4937 28.4525 35.125C29.1988 36.0737 30.9525 36.3663 31.6613 35.4213C33.68 32.7625 35 28.375 35 22.25C35 17.575 32.615 16 30 16C28.2213 16 26.35 17.1388 25 17.875Z" stroke="#3498E1" stroke-linecap="round" stroke-linejoin="round"/>
<path d="M25 17.875L26.25 21L23.75 23.5L26.25 26" stroke="#3498E1" stroke-linecap="round" stroke-linejoin="round"/>
</svg>
